<?xml version="1.0" encoding="iso-8859-1"?>
<!-- Uploaded to: SVG Repo, www.svgrepo.com, Generator: SVG Repo Mixer Tools -->
<svg version="1.1" id="Capa_1" xmlns="http://www.w3.org/2000/svg" xmlns:xlink="http://www.w3.org/1999/xlink" 
	 viewBox="0 0 512 512" xml:space="preserve">
<g>
	<path style="fill:#B6B8BE;" d="M88,352.497L86.98,344H16c-4.418,0-8,3.582-8,8v40h80V352.497z"/>
	<rect x="8" y="392" style="fill:#888693;" width="80" height="16"/>
	<path style="fill:#B6B8BE;" d="M424,392h80v-40c0-4.418-3.582-8-8-8h-70.98l-1.02,8.498V392z"/>
	<path style="fill:#888693;" d="M424,96v256.497l1.02-8.498l22.926-191.047C447.984,152.637,448,152.32,448,152V96
		c0-4.418-3.578-8-8-8h-24C420.422,88,424,91.582,424,96z"/>
	<path style="fill:#888693;" d="M88,96c0-4.418,3.578-8,8-8H72c-4.422,0-8,3.582-8,8v56c0,0.32,0.016,0.637,0.055,0.953L86.98,344
		l1.02,8.498V96z"/>
	<path style="fill:#E3E6E9;" d="M328,360h64c4.418,0,8,3.582,8,8v40h24v-16v-39.502V96c0-4.418-3.578-8-8-8h-88v232V360z M372,128
		c4.822,0,9.36,1.22,13.321,3.366l1.023-1.023c3.125-3.125,8.188-3.125,11.313,0s3.125,8.188,0,11.313l-1.023,1.023
		C398.78,146.64,400,151.178,400,156c0,15.464-12.536,28-28,28c-15.464,0-28-12.536-28-28C344,140.536,356.536,128,372,128z"/>
	<path style="fill:#E3E6E9;" d="M88,96v256.497V392v16h24v-40c0-4.418,3.582-8,8-8h64v-40V88H96C91.578,88,88,91.582,88,96z
		 M112,104h24h8h8h8c4.418,0,8,3.582,8,8v96c0,4.418-3.582,8-8,8h-8h-8h-8h-8h-8h-8c-4.418,0-8-3.582-8-8v-48v-48
		C104,107.582,107.582,104,112,104z"/>
	<path style="fill:#888693;" d="M216,320v-40V152c0-4.418,3.582-8,8-8h64c4.418,0,8,3.582,8,8v128v40h32V88H184v232H216z"/>
	<path style="fill:#B6B8BE;" d="M280,280h-48h-16v40v88h16v-56v-15v-33c0-4.418,3.582-8,8-8h32c4.418,0,8,3.582,8,8v33v15v56h16v-88
		v-40H280z"/>
	<path style="fill:#E3E6E9;" d="M232,168c0-4.418,3.582-8,8-8h32c4.418,0,8,3.582,8,8v112h16V152c0-4.418-3.582-8-8-8h-64
		c-4.418,0-8,3.582-8,8v128h16V168z"/>
	<rect x="144" y="104" style="fill:#FFFFFF;" width="8" height="112"/>
	<rect x="112" y="160" style="fill:#FFFFFF;" width="8" height="56"/>
	<path style="fill:#FFFFFF;" d="M128,160v56h8v-64C136,156.418,132.418,160,128,160z"/>
	<path style="fill:#FFFFFF;" d="M168,208v-96c0-4.418-3.582-8-8-8v112C164.418,216,168,212.418,168,208z"/>
	<path style="fill:#2980D3;" d="M372,184c15.464,0,28-12.536,28-28c0-4.822-1.22-9.36-3.366-13.321l-14.977,14.977
		C380.094,159.219,378.047,160,376,160s-4.094-0.781-5.656-2.344c-3.125-3.125-3.125-8.188,0-11.313l14.977-14.977
		C381.359,129.22,376.822,128,372,128c-15.464,0-28,12.536-28,28C344,171.464,356.536,184,372,184z"/>
	<path style="fill:#FF4F19;" d="M370.344,157.656c1.563,1.563,3.609,2.344,5.656,2.344s4.094-0.781,5.656-2.344l14.977-14.977
		l1.023-1.023c3.125-3.125,3.125-8.188,0-11.313s-8.188-3.125-11.313,0l-1.023,1.023l-14.977,14.977
		C367.219,149.469,367.219,154.531,370.344,157.656z"/>
	<path style="fill:#5C546A;" d="M104,160h8h8h8c4.418,0,8-3.582,8-8v-48h-24c-4.418,0-8,3.582-8,8V160z"/>
	<path style="fill:#FF4F19;" d="M104,160v48c0,4.418,3.582,8,8,8v-56H104z"/>
	<rect x="120" y="160" style="fill:#FF4F19;" width="8" height="56"/>
	<polygon style="fill:#FF4F19;" points="136,216 144,216 144,104 136,104 136,152 	"/>
	<rect x="152" y="104" style="fill:#FF4F19;" width="8" height="112"/>
	<path style="fill:#B6B8BE;" d="M112,368v40h72v-48h-64C115.582,360,112,363.582,112,368z"/>
	<path style="fill:#B6B8BE;" d="M392,360h-64v48h72v-40C400,363.582,396.418,360,392,360z"/>
	<path style="fill:#5C546A;" d="M504,408h-80h-24h-72v-48v-40h-32v88h-16v-56v-15c0-0.552-0.448-1-1-1h-46c-0.552,0-1,0.448-1,1v15
		v56h-16v-88h-32v40v48h-72H88H8c-4.422,0-8,3.582-8,8s3.578,8,8,8h496c4.422,0,8-3.582,8-8S508.422,408,504,408z"/>
	<rect x="424" y="392" style="fill:#888693;" width="80" height="16"/>
	<path style="fill:#A9E4FF;" d="M280,168c0-4.418-3.582-8-8-8h-32c-4.418,0-8,3.582-8,8v112h48V168z"/>
	<path style="fill:#A9E4FF;" d="M272,296h-32c-4.418,0-8,3.582-8,8v33c0-0.552,0.448-1,1-1h46c0.552,0,1,0.448,1,1v-33
		C280,299.582,276.418,296,272,296z"/>
</g>
</svg>