<?xml version="1.0" encoding="iso-8859-1"?>
<!-- Uploaded to: SVG Repo, www.svgrepo.com, Generator: SVG Repo Mixer Tools -->
<svg version="1.1" id="Capa_1" xmlns="http://www.w3.org/2000/svg" xmlns:xlink="http://www.w3.org/1999/xlink" 
	 viewBox="0 0 512 512" xml:space="preserve">
<g>
	<polygon style="fill:#5C546A;" points="264,116 264,100 256,100 248,100 248,116 256,116 	"/>
	<path style="fill:#5C546A;" d="M256,180h31.438c0.188,0,0.375,0.013,0.563,0.018V164h-32h-32v16.018
		c0.188-0.004,0.374-0.018,0.563-0.018H256z"/>
	<path style="fill:#5C546A;" d="M209,372l5.248,41.984c1.001,8.007,7.807,14.016,15.876,14.016H256v-56H209z"/>
	<path style="fill:#888693;" d="M256,428h25.875c8.069,0,14.875-6.009,15.876-14.016L303,372h-47V428z"/>
	<path style="fill:#5C546A;" d="M0,284v32c0,4.418,3.582,8,8,8h24v-40H0z"/>
	<path style="fill:#5C546A;" d="M32,228H8c-4.418,0-8,3.582-8,8v32h32V228z"/>
	<rect x="48" y="284" style="fill:#5C546A;" width="32" height="40"/>
	<path style="fill:#5C546A;" d="M144,324h24c4.418,0,8-3.582,8-8v-32h-32V324z"/>
	<path style="fill:#5C546A;" d="M176,268v-32c0-4.418-3.582-8-8-8h-24v40H176z"/>
	<rect x="96" y="228" style="fill:#5C546A;" width="32" height="40"/>
	<rect x="48" y="228" style="fill:#5C546A;" width="32" height="40"/>
	<rect x="96" y="284" style="fill:#5C546A;" width="32" height="40"/>
	<polygon style="fill:#888693;" points="176,268 144,268 144,228 128,228 128,268 96,268 96,228 80,228 80,268 48,268 48,228 
		32,228 32,268 0,268 0,284 32,284 32,324 48,324 48,284 80,284 80,324 96,324 96,284 128,284 128,324 144,324 144,284 176,284 
		192,284 192,268 	"/>
	<rect x="384" y="284" style="fill:#5C546A;" width="32" height="40"/>
	<path style="fill:#5C546A;" d="M368,228h-24c-4.418,0-8,3.582-8,8v32h32V228z"/>
	<path style="fill:#5C546A;" d="M336,284v32c0,4.418,3.582,8,8,8h24v-40H336z"/>
	<path style="fill:#5C546A;" d="M480,324h24c4.418,0,8-3.582,8-8v-32h-32V324z"/>
	<rect x="432" y="284" style="fill:#5C546A;" width="32" height="40"/>
	<path style="fill:#5C546A;" d="M504,228h-24v40h32v-32C512,231.581,508.418,228,504,228z"/>
	<rect x="432" y="228" style="fill:#5C546A;" width="32" height="40"/>
	<rect x="384" y="228" style="fill:#5C546A;" width="32" height="40"/>
	<polygon style="fill:#888693;" points="480,228 464,228 464,268 432,268 432,228 416,228 416,268 384,268 384,228 368,228 368,268 
		336,268 320,268 320,284 336,284 368,284 368,324 384,324 384,284 416,284 416,324 432,324 432,284 464,284 464,324 480,324 
		480,284 512,284 512,268 480,268 	"/>
	<path style="fill:#FF9300;" d="M256,364v-48h-16v39c0,0.552-0.448,1-1,1h-14c-0.552,0-1-0.448-1-1v-39h-8c-4.418,0-8-3.582-8-8v-32
		c0-4.418,3.582-8,8-8h8v-39c0-0.552,0.448-1,1-1h14c0.552,0,1,0.448,1,1v39h16v-56h-64v56v16v80c0,4.418,3.578,8,8,8h9h47V364z"/>
	<path style="fill:#FFCF00;" d="M320,212h-64v56h16v-39c0-0.552,0.448-1,1-1h14c0.552,0,1,0.448,1,1v39h8c4.418,0,8,3.582,8,8v32
		c0,0.276-0.014,0.549-0.041,0.818c-0.041,0.407-0.122,0.802-0.223,1.188c-0.05,0.192-0.104,0.383-0.168,0.569
		c-0.789,2.319-2.611,4.155-4.92,4.966c-0.83,0.292-1.719,0.458-2.648,0.458h-8v39c0,0.552-0.448,1-1,1h-14c-0.552,0-1-0.448-1-1
		v-39h-16v48v8h47h9c4.422,0,8-3.582,8-8v-80v-16V212z"/>
	<path style="fill:#888693;" d="M256,180h-31.437c-0.188,0-0.375,0.013-0.563,0.018c-7.823,0.182-15.05,4.135-19.406,10.67
		l-11.25,16.875C192.469,208.875,192,210.422,192,212h64V180z"/>
	<path style="fill:#B6B8BE;" d="M256,180v32h64c0-1.578-0.469-3.125-1.344-4.438l-11.25-16.875
		c-4.356-6.535-11.583-10.488-19.406-10.67c-0.188-0.004-0.374-0.018-0.563-0.018H256z"/>
	<path style="fill:#888693;" d="M256,116h-8h-6.461c-2.031,0-4.023,0.383-5.938,1.145l-33.539,13.414
		c-6.109,2.445-10.063,8.277-10.063,14.859V156c0,4.418,3.578,8,8,8h24h32V116z"/>
	<path style="fill:#B6B8BE;" d="M224,268h-8c-4.418,0-8,3.582-8,8v32c0,4.418,3.582,8,8,8h8h16h16v-48h-16H224z"/>
	<path style="fill:#B6B8BE;" d="M303.959,308.818c-0.041,0.407-0.122,0.802-0.223,1.188
		C303.836,309.62,303.917,309.225,303.959,308.818z"/>
	<path style="fill:#B6B8BE;" d="M298.648,315.541c2.309-0.811,4.131-2.646,4.92-4.966
		C302.779,312.895,300.957,314.73,298.648,315.541z"/>
	<path style="fill:#FFCF00;" d="M264,100h8c4.422,0,8-3.582,8-8s-3.578-8-8-8h-16v16H264z"/>
	<path style="fill:#B6B8BE;" d="M256,164h32h24c4.422,0,8-3.582,8-8v-10.582c0-6.582-3.953-12.414-10.063-14.855l-33.555-13.43
		c-1.898-0.75-3.891-1.133-5.922-1.133H264h-8V164z"/>
	<path style="fill:#FF9300;" d="M256,84h-16c-4.422,0-8,3.582-8,8s3.578,8,8,8h8h8V84z"/>
	<path style="fill:#D5D9DE;" d="M272,316h16h8c0.93,0,1.818-0.167,2.648-0.458c2.309-0.811,4.131-2.646,4.92-4.966
		c0.064-0.187,0.118-0.377,0.168-0.569c0.1-0.387,0.181-0.781,0.223-1.188c0.027-0.269,0.041-0.542,0.041-0.818v-32
		c0-4.418-3.582-8-8-8h-8h-16h-16v48H272z"/>
	<path style="fill:#5C546A;" d="M240,229c0-0.552-0.448-1-1-1h-14c-0.552,0-1,0.448-1,1v39h16V229z"/>
	<path style="fill:#5C546A;" d="M224,355c0,0.552,0.448,1,1,1h14c0.552,0,1-0.448,1-1v-39h-16V355z"/>
	<path style="fill:#888693;" d="M288,229c0-0.552-0.448-1-1-1h-14c-0.552,0-1,0.448-1,1v39h16V229z"/>
	<path style="fill:#888693;" d="M272,355c0,0.552,0.448,1,1,1h14c0.552,0,1-0.448,1-1v-39h-16V355z"/>
</g>
</svg>