<?xml version="1.0" encoding="iso-8859-1"?>
<!-- Uploaded to: SVG Repo, www.svgrepo.com, Generator: SVG Repo Mixer Tools -->
<svg version="1.1" id="Capa_1" xmlns="http://www.w3.org/2000/svg" xmlns:xlink="http://www.w3.org/1999/xlink" 
	 viewBox="0 0 496 496" xml:space="preserve">
<g>
	<path style="fill:none;stroke:#5C546A;strokeWidth:0;stroke-linecap:round;strokeLinejoin:round;" d="M416,247.647
		c0,0.078,0,0.078,0,0.078"/>
	<path style="fill:#5C546A;" d="M115.218,108.547c0.336,0.218,0.666,0.443,0.991,0.675c0.024,0.017,0.047,0.033,0.071,0.051
		c0.335,0.24,0.664,0.487,0.988,0.741c0.013,0.01,0.025,0.02,0.038,0.03c0.331,0.261,0.656,0.529,0.975,0.804
		c0.005,0.004,0.01,0.009,0.015,0.013c0.324,0.281,0.642,0.568,0.953,0.863c0,0,0,0,0,0l0,0c0.825,0.782,1.608,1.609,2.333,2.485
		c0.35,0.045,0.702,0.076,1.058,0.076c1.836,0,3.602-0.559,5.117-1.84c3.438-2.801,3.844-7.84,1.039-11.281
		c-2.797-3.359-7.836-3.84-11.281-1.039c-2.443,2.093-3.353,5.329-2.597,8.232c0.064,0.04,0.127,0.081,0.19,0.122
		C115.146,108.501,115.182,108.523,115.218,108.547z"/>
	<path style="fill:#5C546A;" d="M68.719,180.287c-4.242-1.523-8.797,0.719-10.242,4.875c-1.438,4.242,0.805,8.719,4.961,10.242
		c0.883,0.242,1.758,0.398,2.641,0.398c3.281,0,6.398-2.078,7.523-5.359C75.039,186.287,72.875,181.725,68.719,180.287z"/>
	<path style="fill:#5C546A;" d="M142,92.045c1.438,2.637,4.156,4.078,6.961,4.078c1.281,0,2.719-0.32,3.914-1.039
		c3.844-2.242,5.203-7.121,2.961-10.961c-2.156-3.84-7.039-5.121-10.875-2.961C141.117,83.323,139.758,88.205,142,92.045z"/>
	<path style="fill:#5C546A;" d="M85.823,156.188c-0.336-0.198-0.667-0.403-0.993-0.614c-0.035-0.022-0.07-0.044-0.104-0.067
		c-0.306-0.199-0.607-0.406-0.904-0.616c-0.053-0.038-0.106-0.075-0.159-0.113c-0.284-0.204-0.563-0.413-0.838-0.628
		c-0.062-0.048-0.124-0.097-0.186-0.146c-0.266-0.211-0.529-0.425-0.787-0.646c-0.066-0.056-0.132-0.114-0.198-0.171
		c-0.251-0.218-0.5-0.44-0.743-0.667c-0.068-0.063-0.133-0.127-0.2-0.191c-0.24-0.228-0.477-0.458-0.708-0.694
		c-0.062-0.063-0.122-0.129-0.184-0.193c-0.233-0.242-0.463-0.485-0.687-0.735c-0.009-0.01-0.018-0.019-0.026-0.028
		c-2.784,0.033-5.486,1.49-6.948,4.085c-2.156,3.84-0.797,8.719,3.125,10.883c1.195,0.719,2.555,1.039,3.836,1.039
		c2.805,0,5.523-1.523,7.039-4.164c0.984-1.811,1.191-3.852,0.741-5.731c-0.36-0.191-0.714-0.391-1.064-0.596
		C85.83,156.192,85.826,156.19,85.823,156.188z"/>
	<path style="fill:#5C546A;" d="M57.039,226.686c0.398,0.078,0.797,0.156,1.203,0.156c3.914,0,7.273-2.797,7.914-6.797
		c0.719-4.32-2.234-8.484-6.641-9.125c-4.32-0.719-8.477,2.242-9.117,6.641C49.68,221.881,52.641,226.045,57.039,226.686z"/>
	<path style="fill:#5C546A;" d="M105.68,374.045c3.359-2.883,3.68-7.922,0.797-11.281c-2.875-3.359-7.922-3.758-11.281-0.883
		c-3.359,2.883-3.68,7.922-0.797,11.281c1.523,1.844,3.758,2.805,6,2.805C102.242,375.967,104.156,375.326,105.68,374.045z"/>
	<path style="fill:#5C546A;" d="M81.758,350.045c1.438,0,2.797-0.398,4.078-1.125c3.844-2.32,5.039-7.195,2.805-10.953
		c-2.242-3.844-7.203-5.125-10.961-2.805c-3.844,2.242-5.039,7.125-2.805,10.961C76.398,348.6,79.039,350.045,81.758,350.045z"/>
	<path style="fill:#5C546A;" d="M56.078,258.686c4.477-0.086,8-3.68,7.922-8.086c-0.078-4.477-3.68-8-8.078-7.914
		c-4.484,0.078-8,3.68-7.922,8.078s3.68,7.922,8,7.922C56.078,258.686,56.078,258.686,56.078,258.686z"/>
	<path style="fill:#5C546A;" d="M75.359,310.365c-1.602-4.078-6.164-6.164-10.32-4.641c-4.164,1.602-6.242,6.242-4.641,10.32
		c1.203,3.195,4.242,5.195,7.438,5.195c0.961,0,1.922-0.156,2.883-0.555C74.797,319.162,76.875,314.522,75.359,310.365z"/>
	<path style="fill:#5C546A;" d="M59.195,290.443c0.484,0,0.961,0,1.523-0.078c4.32-0.883,7.203-5.039,6.398-9.359
		c-0.875-4.32-5.039-7.203-9.359-6.406c-4.398,0.805-7.203,5.047-6.398,9.367C52.078,287.803,55.438,290.443,59.195,290.443z"/>
	<path style="fill:#5C546A;" d="M170.398,77.483c1.203,3.281,4.242,5.281,7.602,5.281c0.875,0,1.758-0.16,2.641-0.48
		c4.156-1.441,6.32-6.078,4.875-10.238c-1.516-4.16-6.078-6.32-10.234-4.801C171.117,68.682,168.961,73.323,170.398,77.483z"/>
	<path style="fill:#5C546A;" d="M405.359,187.725c1.195,3.195,4.242,5.281,7.516,5.281c0.961,0,1.844-0.164,2.727-0.484
		c4.156-1.516,6.32-6.156,4.797-10.32c-1.523-4.156-6.078-6.234-10.242-4.719C406,179.006,403.836,183.561,405.359,187.725z"/>
	<path style="fill:#5C546A;" d="M375.836,123.725c-3.359,2.801-3.758,7.918-0.961,11.277c1.602,1.84,3.844,2.883,6.164,2.883
		c1.758,0,3.602-0.641,5.117-1.922c3.359-2.801,3.844-7.84,0.961-11.281h0.078C384.32,121.323,379.281,120.842,375.836,123.725z"/>
	<path style="fill:#5C546A;" d="M352.32,102.123c-2.883,3.359-2.398,8.402,0.961,11.281c1.516,1.199,3.359,1.84,5.195,1.84
		c2.242,0,4.484-0.961,6.078-2.879c2.883-3.363,2.406-8.402-0.953-11.281C360.242,98.284,355.195,98.682,352.32,102.123z"/>
	<path style="fill:#5C546A;" d="M420,287.404c0.398,0.078,0.875,0.078,1.359,0.078c3.758,0,7.117-2.719,7.836-6.641
		c0.727-4.32-2.156-8.477-6.477-9.195c-4.398-0.805-8.563,2.156-9.281,6.477C412.719,282.522,415.601,286.6,420,287.404z"/>
	<path style="fill:#5C546A;" d="M422.555,223.725c4.32-0.805,7.281-4.961,6.484-9.281c-0.719-4.32-4.883-7.281-9.281-6.477
		c-4.32,0.797-7.203,4.875-6.477,9.273c0.719,3.844,4.078,6.563,7.914,6.563C421.601,223.803,422.078,223.803,422.555,223.725z"/>
	<path style="fill:#5C546A;" d="M200.961,68.045c0.719,3.84,4.078,6.637,7.914,6.637c0.484,0,0.883-0.078,1.367-0.078
		c4.313-0.801,7.273-4.961,6.555-9.281c-0.797-4.32-4.875-7.277-9.281-6.559C203.195,59.565,200.242,63.643,200.961,68.045z"/>
	<path style="fill:#5C546A;" d="M325.437,84.842c-2.242,3.84-0.961,8.723,2.883,10.961c0-0.078,0-0.078,0-0.078
		c1.195,0.801,2.641,1.117,4,1.117c2.719,0,5.438-1.438,6.875-4c2.242-3.758,0.961-8.637-2.875-10.879
		C332.476,79.725,327.601,81.002,325.437,84.842z"/>
	<path style="fill:#5C546A;" d="M232.719,64.045c0,4.398,3.602,8,8,8c4.398,0,8-3.602,8-8c0-4.402-3.523-8-7.922-8
		C236.32,56.045,232.797,59.565,232.719,64.045z"/>
	<path style="fill:#5C546A;" d="M264.719,65.483c-0.797,4.402,2.078,8.48,6.477,9.281c0.406,0.078,0.883,0.16,1.359,0.16
		c3.844,0,7.203-2.719,7.922-6.641c0.719-4.32-2.156-8.48-6.477-9.281C269.601,58.284,265.437,61.162,264.719,65.483z"/>
	<path style="fill:#5C546A;" d="M295.922,72.526c-1.523,4.156,0.555,8.719,4.719,10.238c0.961,0.32,1.836,0.48,2.797,0.48
		c3.203,0,6.32-2,7.438-5.199c1.523-4.16-0.555-8.801-4.719-10.32C302,66.205,297.437,68.366,295.922,72.526z"/>
	<path style="fill:#5C546A;" d="M424,239.647c-4.484,0-8,3.594-8,8c0,4.477,3.602,8,8,8s8-3.602,8-8
		C432,243.24,428.398,239.647,424,239.647z"/>
	<path style="fill:#5C546A;" d="M399.359,164.045c1.359,0,2.797-0.398,4-1.125c3.836-2.156,5.117-7.117,2.961-10.875
		c-2.242-3.84-7.125-5.203-10.961-2.961c-3.844,2.238-5.117,7.121-2.883,10.961C393.922,162.6,396.64,164.045,399.359,164.045z"/>
	<path style="fill:#5C546A;" d="M386.64,359.482c-3.445-2.883-8.484-2.398-11.281,1.039c-2.805,3.359-2.32,8.398,1.039,11.281
		c1.523,1.203,3.281,1.844,5.117,1.844c2.32,0,4.563-1.047,6.164-2.883C390.476,367.326,390,362.287,386.64,359.482z"/>
	<path style="fill:#5C546A;" d="M301.359,413.084c-4.164,1.516-6.32,6.078-4.719,10.242c1.195,3.195,4.234,5.195,7.516,5.195
		c0.883,0,1.844-0.156,2.719-0.477c4.164-1.523,6.242-6.164,4.727-10.242C310.078,413.647,305.516,411.482,301.359,413.084z"/>
	<path style="fill:#5C546A;" d="M420.64,313.084c1.516-4.164-0.641-8.719-4.805-10.242c-4.156-1.438-8.719,0.641-10.234,4.805
		c-1.445,4.156,0.641,8.797,4.797,10.234c0.961,0.32,1.844,0.484,2.719,0.484C416.398,318.365,419.515,316.365,420.64,313.084z"/>
	<path style="fill:#5C546A;" d="M241.437,424.045c-4.398,0-8,3.68-7.922,8.078c0,4.398,3.602,7.922,8,7.922c0,0,0,0,0.086,0
		c4.398-0.078,7.914-3.68,7.914-8.078C249.437,427.561,245.836,423.967,241.437,424.045z"/>
	<path style="fill:#5C546A;" d="M395.758,346.287c1.281,0.719,2.641,1.117,4,1.117c2.719,0,5.438-1.438,6.883-4.078h0.078
		c2.156-3.766,0.797-8.727-3.039-10.883c-3.844-2.242-8.719-0.883-10.883,2.961C390.555,339.24,391.922,344.123,395.758,346.287z"/>
	<path style="fill:#5C546A;" d="M181.359,414.045c-4.164-1.523-8.719,0.719-10.164,4.875c-1.516,4.164,0.727,8.727,4.883,10.242
		c0.883,0.242,1.758,0.398,2.641,0.398c3.281,0,6.398-2,7.523-5.359C187.758,420.123,185.516,415.482,181.359,414.045z"/>
	<path style="fill:#5C546A;" d="M129.438,395.326c2.805-3.359,2.32-8.406-1.117-11.203c-3.359-2.797-8.398-2.32-11.203,1.117
		c-2.797,3.359-2.32,8.406,1.039,11.203v0.078c1.523,1.203,3.359,1.766,5.125,1.766
		C125.602,398.287,127.836,397.326,129.438,395.326z"/>
	<path style="fill:#5C546A;" d="M271.836,421.162c-4.32,0.805-7.195,4.961-6.398,9.281c0.719,3.844,4.078,6.563,7.922,6.563
		c0.398,0,0.883,0,1.359-0.086c4.398-0.875,7.281-5.039,6.477-9.359C280.398,423.24,276.242,420.365,271.836,421.162z"/>
	<path style="fill:#5C546A;" d="M328.961,399.967c-3.844,2.234-5.125,7.117-2.883,10.953c1.523,2.484,4.164,3.922,6.883,3.922
		c1.438,0,2.797-0.32,4.078-1.117c3.758-2.242,5.117-7.125,2.883-10.883C337.68,399.006,332.719,397.725,328.961,399.967z"/>
	<path style="fill:#5C546A;" d="M153.602,401.404c-3.844-2.164-8.805-0.805-10.961,3.039c-2.164,3.844-0.805,8.719,3.039,10.883
		c1.281,0.719,2.641,1.039,3.922,1.039c2.797,0,5.516-1.445,7.039-4.078C158.797,408.443,157.437,403.561,153.602,401.404z"/>
	<path style="fill:#5C546A;" d="M210.961,421.647c-4.406-0.727-8.484,2.234-9.203,6.555c-0.719,4.398,2.242,8.563,6.563,9.281
		c0.477,0.078,0.875,0.078,1.359,0.078c3.836,0,7.195-2.797,7.836-6.719C218.242,426.522,215.281,422.365,210.961,421.647z"/>
	<path style="fill:#5C546A;" d="M353.836,382.287c0-0.086,0-0.086,0-0.086c-3.359,2.883-3.758,7.922-0.875,11.281
		c1.516,1.922,3.836,2.883,6.078,2.883c1.836,0,3.68-0.641,5.203-1.922c3.359-2.883,3.758-7.922,0.875-11.281
		C362.242,379.803,357.195,379.404,353.836,382.287z"/>
	<path style="fill:#5C546A;" d="M274.555,108.205c-4.313-1.043-8.633,1.598-9.68,5.84c-1.039,4.32,1.602,8.637,5.844,9.68
		c0.641,0.16,1.281,0.238,1.922,0.238c3.602,0,6.875-2.398,7.758-6.078C281.437,113.643,278.797,109.244,274.555,108.205z"/>
	<path style="fill:#5C546A;" d="M150.961,156.045c3.195-3.043,3.281-8.16,0.234-11.281c-3.117-3.199-8.156-3.281-11.359-0.16v-0.078
		c-3.195,3.117-3.281,8.156-0.156,11.359c1.516,1.598,3.68,2.48,5.758,2.48C147.437,158.366,149.437,157.565,150.961,156.045z"/>
	<path style="fill:#5C546A;" d="M289.281,382.842c0.961,0,1.914-0.156,2.875-0.555c4.164-1.602,6.164-6.242,4.563-10.32
		c-1.602-4.164-6.242-6.164-10.32-4.563c-4.156,1.602-6.156,6.242-4.563,10.32C283.039,380.92,286.078,382.842,289.281,382.842z"/>
	<path style="fill:#5C546A;" d="M137.359,345.24c1.836,0,3.68-0.641,5.195-1.914c3.367-2.961,3.687-8,0.805-11.359
		c-2.883-3.281-7.922-3.68-11.281-0.727c-3.359,2.883-3.68,7.922-0.797,11.281C132.875,344.287,135.117,345.24,137.359,345.24z"/>
	<path style="fill:#5C546A;" d="M204.555,124.682c0.727,0,1.445-0.078,2.086-0.238c4.32-1.199,6.797-5.602,5.68-9.84
		c-1.125-4.238-5.523-6.801-9.844-5.602c-4.234,1.121-6.797,5.523-5.602,9.762C197.836,122.366,201.039,124.682,204.555,124.682z"/>
	<path style="fill:#5C546A;" d="M172.875,137.725c1.367,0,2.641-0.32,3.922-1.043c3.844-2.156,5.203-7.039,3.039-10.879
		c-2.234-3.84-7.117-5.199-10.961-3.039c-3.836,2.238-5.195,7.121-2.953,10.961C167.359,136.283,170.078,137.725,172.875,137.725z"
		/>
	<path style="fill:#5C546A;" d="M130.797,181.241c2.32-3.758,1.125-8.719-2.641-10.953c-3.836-2.32-8.719-1.203-11.039,2.633
		c-2.32,3.766-1.117,8.641,2.641,10.961c1.281,0.805,2.719,1.203,4.164,1.203C126.641,185.084,129.281,183.725,130.797,181.241z"/>
	<path style="fill:#5C546A;" d="M238.641,120.045c4.398,0,8-3.68,7.914-8.082c0-4.398-3.68-7.918-8.078-7.918
		c-4.398,0.078-7.922,3.68-7.922,8.078c0.086,4.402,3.602,7.922,8,7.922H238.641z"/>
	<path style="fill:#5C546A;" d="M308.476,121.323h-0.078c-3.844-2.078-8.719-0.641-10.797,3.203
		c-2.086,3.918-0.641,8.797,3.195,10.879c1.203,0.641,2.563,0.961,3.844,0.961c2.797,0,5.602-1.523,7.039-4.16
		C313.758,128.283,312.32,123.405,308.476,121.323z"/>
	<path style="fill:#5C546A;" d="M103.758,250.123c0.164,0.078,0.242,0.078,0.32,0.078c4.32,0,7.844-3.438,8-7.68
		c0.242-4.398-3.203-8.156-7.602-8.398c-4.398-0.156-8.156,3.281-8.398,7.68h0.078C95.922,246.201,99.359,249.967,103.758,250.123z"
		/>
	<path style="fill:#5C546A;" d="M359.601,313.404c1.039,0.477,2.234,0.719,3.359,0.719c3.039,0,5.914-1.68,7.281-4.563
		c1.836-4,0.156-8.719-3.844-10.641c-4-1.914-8.719-0.156-10.641,3.844C353.836,306.686,355.601,311.482,359.601,313.404z"/>
	<path style="fill:#5C546A;" d="M361.68,208.123c1.039,3.359,4.156,5.523,7.516,5.523c0.883,0,1.68-0.164,2.563-0.406
		c4.164-1.359,6.484-5.914,5.117-10.078c-1.438-4.242-5.914-6.477-10.156-5.117C362.555,199.404,360.242,203.881,361.68,208.123z"/>
	<path style="fill:#5C546A;" d="M383.68,238.842v-0.078c-0.242-4.398-4.078-7.758-8.484-7.438c-4.398,0.234-7.758,4.078-7.438,8.477
		c0.242,4.242,3.758,7.523,7.922,7.523c0.242,0,0.398,0,0.563-0.086C380.64,247.006,384,243.24,383.68,238.842z"/>
	<path style="fill:#5C546A;" d="M373.601,281.561c3.758,0,7.117-2.719,7.836-6.555c0.883-4.32-2-8.484-6.32-9.359
		c-4.398-0.805-8.563,2.078-9.359,6.398s2,8.555,6.398,9.359C372.64,281.483,373.117,281.561,373.601,281.561z"/>
	<path style="fill:#5C546A;" d="M358.797,181.405c3.758-2.398,4.805-7.359,2.484-11.117v0.078
		c-2.406-3.766-7.359-4.805-11.125-2.484c-3.68,2.406-4.719,7.359-2.398,11.125c1.523,2.32,4.078,3.68,6.719,3.68
		C356,182.686,357.515,182.201,358.797,181.405z"/>
	<path style="fill:#5C546A;" d="M338.398,329.881c0,0.086,0,0.086,0,0.086c-2.883,3.359-2.398,8.398,1.039,11.195
		c1.438,1.281,3.281,1.922,5.117,1.922c2.242,0,4.563-1.039,6.086-2.883c2.875-3.438,2.398-8.477-0.961-11.281
		C346.242,326.045,341.195,326.522,338.398,329.881z"/>
	<path style="fill:#5C546A;" d="M106.961,284.365c0.555,0,1.039-0.078,1.594-0.164c4.406-0.961,7.125-5.195,6.242-9.516
		c-0.961-4.32-5.195-7.125-9.516-6.164c-4.32,0.883-7.125,5.125-6.164,9.523C99.922,281.725,103.195,284.365,106.961,284.365z"/>
	<path style="fill:#5C546A;" d="M185.836,373.084c-1.516,4.156,0.641,8.719,4.805,10.242c0.875,0.398,1.836,0.555,2.719,0.555
		c3.281,0,6.32-2.078,7.516-5.281c1.523-4.156-0.633-8.797-4.719-10.234C192,366.842,187.359,368.92,185.836,373.084z"/>
	<path style="fill:#5C546A;" d="M109.836,216.365c3.445,0,6.641-2.242,7.68-5.68c1.281-4.242-1.117-8.719-5.359-10
		c-4.156-1.281-8.641,1.117-9.914,5.359c-1.281,4.156,1.039,8.641,5.273,10C108.32,216.201,109.117,216.365,109.836,216.365z"/>
	<path style="fill:#5C546A;" d="M326.641,142.924c-3.039,3.199-2.805,8.32,0.398,11.281c1.516,1.438,3.516,2.16,5.438,2.16
		c2.164,0,4.32-0.883,5.844-2.563c3.039-3.277,2.875-8.32-0.398-11.277C334.719,139.483,329.601,139.643,326.641,142.924z"/>
	<path style="fill:#5C546A;" d="M118.242,316.764c1.195,0,2.477-0.32,3.594-0.883c3.922-2,5.523-6.797,3.602-10.719
		c-2-3.922-6.797-5.602-10.719-3.602c-4,2-5.602,6.805-3.602,10.727C112.477,315.084,115.359,316.764,118.242,316.764z"/>
	<path style="fill:#5C546A;" d="M263.969,382.83c0.006,0.112,0.005,0.227,0.009,0.339
		C263.978,383.056,263.974,382.943,263.969,382.83z"/>
	<path style="fill:#5C546A;" d="M314.719,351.967c-3.523,2.555-4.398,7.594-1.758,11.117c1.516,2.242,4,3.359,6.477,3.359
		c1.602,0,3.281-0.477,4.641-1.523c3.602-2.555,4.398-7.594,1.844-11.117C323.359,350.201,318.32,349.404,314.719,351.967z"/>
	<path style="fill:#5C546A;" d="M156.32,355.561c-2.484,3.602-1.602,8.641,2.078,11.125c1.359,0.961,2.961,1.438,4.477,1.438
		c2.563,0,5.047-1.203,6.641-3.523c2.484-3.594,1.602-8.555-2.078-11.117C163.836,351.006,158.797,351.881,156.32,355.561z"/>
	<path style="fill:#5C546A;" d="M24.078,308.045c-1.117-4.242-5.523-6.805-9.836-5.602c-4.242,1.203-6.727,5.602-5.523,9.844
		c0.961,3.516,4.156,5.914,7.68,5.914c0.719,0,1.438-0.156,2.156-0.32C22.797,316.686,25.281,312.287,24.078,308.045z"/>
	<path style="fill:#5C546A;" d="M228.477,24.283c0.164,0,0.32,0,0.398,0c4.406-0.16,7.844-3.918,7.602-8.32
		c-0.156-4.48-3.922-7.84-8.32-7.598c-4.477,0.16-7.836,3.918-7.68,8.316C220.719,21.002,224.242,24.283,228.477,24.283z"/>
	<path style="fill:#5C546A;" d="M373.758,68.284c1.359,1.121,3.039,1.602,4.719,1.602c2.484,0,4.883-1.121,6.484-3.203
		c2.555-3.52,1.836-8.559-1.68-11.199c-3.523-2.641-8.563-1.918-11.203,1.602C369.437,60.682,370.156,65.725,373.758,68.284z"/>
	<path style="fill:#5C546A;" d="M196.797,28.045c0.484,0,0.961,0,1.445-0.16c4.313-0.801,7.195-4.961,6.398-9.281
		c-0.805-4.398-5.039-7.199-9.359-6.398c-4.32,0.797-7.203,5.039-6.406,9.359C189.602,25.405,192.961,28.045,196.797,28.045z"/>
	<path style="fill:#5C546A;" d="M34.398,337.162c-1.758-4.078-6.477-5.922-10.477-4.156c-4.086,1.758-5.922,6.477-4.164,10.477
		c1.281,3.039,4.242,4.883,7.281,4.883c1.117,0,2.156-0.242,3.203-0.719C34.32,345.881,36.156,341.162,34.398,337.162z"/>
	<path style="fill:#5C546A;" d="M317.836,458.123c-4.156,1.523-6.234,6.164-4.719,10.32c1.203,3.203,4.242,5.203,7.523,5.203
		c0.875,0,1.836-0.164,2.797-0.484c4.078-1.602,6.242-6.156,4.719-10.32C326.641,458.686,322,456.6,317.836,458.123z"/>
	<path style="fill:#5C546A;" d="M226.797,471.647c-4.398-0.242-8.156,3.117-8.398,7.516s3.117,8.242,7.523,8.484
		c0.156,0,0.234,0,0.398,0c4.234,0,7.758-3.281,8-7.523C234.555,475.725,231.195,471.881,226.797,471.647z"/>
	<path style="fill:#5C546A;" d="M347.758,51.643c1.203,0.641,2.563,0.961,3.844,0.961c2.797,0,5.594-1.52,7.039-4.16
		c2.078-3.84,0.719-8.719-3.125-10.801c-3.914-2.16-8.797-0.801-10.875,3.121C342.476,44.604,343.922,49.483,347.758,51.643z"/>
	<path style="fill:#5C546A;" d="M257.68,471.326c-4.398,0.398-7.68,4.234-7.281,8.641c0.242,4.156,3.758,7.359,7.922,7.359
		c0.234,0,0.398,0,0.641,0c4.398-0.406,7.68-4.242,7.359-8.641S262.078,471.006,257.68,471.326z"/>
	<path style="fill:#5C546A;" d="M9.195,223.006c0.406,0.078,0.727,0.078,1.125,0.078c3.922,0,7.359-2.883,7.922-6.883
		c0.633-4.398-2.406-8.398-6.805-9.039s-8.398,2.398-9.039,6.805C1.758,218.287,4.797,222.365,9.195,223.006z"/>
	<path style="fill:#5C546A;" d="M7.922,254.92c4.477,0,8.078-3.516,8.078-7.914c0-4.484-3.523-8-7.922-8.086
		c-4.477,0-8.078,3.602-8.078,8C0,251.326,3.516,254.92,7.922,254.92z"/>
	<path style="fill:#5C546A;" d="M11.039,286.764c4.398-0.563,7.516-4.562,6.883-8.961c-0.563-4.398-4.563-7.438-8.961-6.883
		c-4.406,0.563-7.445,4.563-6.883,8.961c0.563,4.086,4,6.961,7.922,6.961C10.398,286.842,10.719,286.842,11.039,286.764z"/>
	<path style="fill:#5C546A;" d="M424,114.682c1.68,0,3.359-0.559,4.797-1.68c3.523-2.719,4.164-7.758,1.523-11.199
		c-2.719-3.52-7.766-4.16-11.281-1.52c-3.438,2.719-4.078,7.762-1.438,11.281C419.195,113.565,421.515,114.682,424,114.682z"/>
	<path style="fill:#5C546A;" d="M37.68,361.881c-3.844,2.32-5.039,7.203-2.719,10.961c1.516,2.484,4.156,3.844,6.875,3.844
		c1.359,0,2.805-0.32,4.164-1.125c3.758-2.32,4.961-7.273,2.641-11.039C46.32,360.764,41.438,359.561,37.68,361.881z"/>
	<path style="fill:#5C546A;" d="M402.797,90.682c2,0,4.078-0.797,5.68-2.316c3.039-3.203,3.039-8.242-0.078-11.363
		c-3.203-3.117-8.242-3.039-11.359,0.082c-3.117,3.199-3.039,8.238,0.078,11.359C398.719,89.963,400.719,90.682,402.797,90.682z"/>
	<path style="fill:#5C546A;" d="M346,445.404c-3.922,2.078-5.359,6.961-3.281,10.883c1.438,2.633,4.242,4.156,7.117,4.156
		c1.203,0,2.563-0.32,3.766-0.961c3.836-2.078,5.359-6.961,3.195-10.797C354.719,444.764,349.836,443.326,346,445.404z"/>
	<path style="fill:#5C546A;" d="M111.602,431.647c-3.602-2.563-8.563-1.68-11.125,1.914c-2.555,3.68-1.68,8.641,2,11.203
		c1.359,0.961,2.961,1.438,4.563,1.438c2.477,0,4.961-1.195,6.563-3.438C116.156,439.162,115.195,434.201,111.602,431.647z"/>
	<path style="fill:#5C546A;" d="M372.078,428.92c-3.523,2.641-4.32,7.602-1.68,11.203c1.523,2.164,4,3.281,6.398,3.281
		c1.68,0,3.281-0.484,4.719-1.523c3.602-2.641,4.406-7.68,1.766-11.195C380.64,427.084,375.68,426.365,372.078,428.92z"/>
	<path style="fill:#5C546A;" d="M441.68,141.244c1.359,0,2.719-0.32,3.922-1.039c3.836-2.16,5.195-7.043,3.039-10.883
		c-2.242-3.84-7.125-5.199-10.961-2.957c-3.844,2.16-5.203,7.039-2.961,10.879C436.156,139.803,438.875,141.244,441.68,141.244z"/>
	<path style="fill:#5C546A;" d="M457.515,194.444c0.883,3.68,4.242,6.078,7.844,6.078c0.563,0,1.195-0.078,1.836-0.234
		c4.32-1.047,6.961-5.367,5.922-9.688c-1.117-4.234-5.438-6.875-9.68-5.836C459.117,185.803,456.476,190.123,457.515,194.444z"/>
	<path style="fill:#5C546A;" d="M138.078,447.561c-3.922-2-8.797-0.477-10.797,3.445c-2,3.914-0.484,8.797,3.516,10.797
		c1.125,0.563,2.398,0.883,3.602,0.883c2.883,0,5.68-1.602,7.117-4.398C143.516,454.365,142,449.561,138.078,447.561z"/>
	<path style="fill:#5C546A;" d="M448.156,165.084c-0.078,0-0.078,0-0.078,0c1.281,3.117,4.32,5.039,7.438,5.039
		c1.039,0,2-0.242,2.961-0.563c4.164-1.68,6.164-6.32,4.484-10.477c-1.602-4.082-6.242-6.082-10.406-4.402
		C448.476,156.283,446.476,160.92,448.156,165.084z"/>
	<path style="fill:#5C546A;" d="M55.281,388.6c-3.445,2.805-4,7.844-1.203,11.281c1.602,1.922,3.922,2.883,6.242,2.883
		c1.758,0,3.516-0.563,5.039-1.758c3.438-2.805,3.922-7.844,1.117-11.281C63.68,386.287,58.641,385.803,55.281,388.6z"/>
	<path style="fill:#5C546A;" d="M14.797,191.483c0.719,0.242,1.445,0.32,2.164,0.32c3.516,0,6.719-2.242,7.758-5.758
		c1.203-4.242-1.281-8.719-5.523-9.922c-4.234-1.203-8.641,1.203-9.914,5.523C8.078,185.881,10.555,190.287,14.797,191.483z"/>
	<path style="fill:#5C546A;" d="M259.758,24.924c0.242,0,0.484,0,0.719,0c4.078,0,7.602-3.121,8-7.281
		c0.32-4.398-2.875-8.32-7.281-8.641c-4.398-0.398-8.32,2.801-8.719,7.281C252.078,20.604,255.359,24.526,259.758,24.924z"/>
	<path style="fill:#5C546A;" d="M473.213,224.076c0.148,0.007,0.295,0.022,0.442,0.033c0.251,0.017,0.502,0.032,0.751,0.057
		c0.188,0.019,0.372,0.046,0.559,0.069c0.206,0.025,0.413,0.048,0.617,0.078c0.209,0.031,0.416,0.071,0.623,0.108
		c0.176,0.031,0.354,0.059,0.529,0.094c0.228,0.046,0.452,0.099,0.677,0.151c0.151,0.035,0.303,0.067,0.453,0.104
		c0.241,0.061,0.479,0.129,0.717,0.196c0.043,0.012,0.087,0.023,0.13,0.036c0.065-0.573,0.073-1.162,0.009-1.761
		c-0.477-4.398-4.398-7.594-8.719-7.117c-4.484,0.398-7.602,4.32-7.203,8.719c0.032,0.331,0.092,0.652,0.164,0.97
		c2.79-1.136,5.84-1.766,9.039-1.766C472.407,224.045,472.811,224.056,473.213,224.076z"/>
	<path style="fill:#5C546A;" d="M466.797,297.881c-4.32-1.117-8.641,1.445-9.758,5.766c-1.117,4.234,1.516,8.641,5.758,9.68
		c0.719,0.234,1.359,0.32,2,0.32c3.602,0,6.805-2.406,7.758-6.086C473.601,303.326,471.039,298.92,466.797,297.881z"/>
	<path style="fill:#5C546A;" d="M427.601,384.764c-3.445-2.719-8.484-2.164-11.203,1.359c-2.719,3.438-2.156,8.477,1.359,11.203
		c1.438,1.195,3.203,1.758,4.883,1.758c2.398,0,4.719-1.039,6.32-3.117C431.68,392.522,431.117,387.482,427.601,384.764z"/>
	<path style="fill:#5C546A;" d="M76.32,412.686c-3.039,3.195-2.805,8.234,0.398,11.281c1.523,1.438,3.523,2.156,5.438,2.156
		c2.164,0,4.32-0.883,5.922-2.563c2.961-3.273,2.719-8.32-0.477-11.359C84.398,409.24,79.281,409.404,76.32,412.686z"/>
	<path style="fill:#5C546A;" d="M395.758,409.084c-3.203,3.039-3.281,8.078-0.242,11.281c1.602,1.602,3.68,2.477,5.766,2.477
		c2,0,4-0.797,5.516-2.32c3.203-3.039,3.281-8.078,0.242-11.281C403.922,406.045,398.875,405.967,395.758,409.084z"/>
	<path style="fill:#5C546A;" d="M457.758,328.6c-4.078-1.758-8.719,0.242-10.398,4.32c-1.68,4.086,0.242,8.805,4.32,10.484
		c1.039,0.398,2.078,0.563,3.039,0.563c3.203,0,6.156-1.844,7.438-4.961C463.836,334.92,461.836,330.201,457.758,328.6z"/>
	<path style="fill:#5C546A;" d="M463.425,270.462c-0.451,0.865-0.759,1.826-0.871,2.865c-0.477,4.32,2.727,8.32,7.125,8.797
		c0.242,0.078,0.563,0.078,0.875,0.078c4,0,7.523-3.039,7.922-7.117c0.146-1.33-0.042-2.621-0.491-3.792
		c-1.914,0.491-3.919,0.753-5.986,0.753C468.978,272.045,466.089,271.481,463.425,270.462z"/>
	<path style="fill:#5C546A;" d="M444.64,357.725c-3.844-2.242-8.719-0.961-10.883,2.875c-2.242,3.844-0.961,8.727,2.797,10.961
		c1.281,0.727,2.727,1.039,4.086,1.039c2.719,0,5.438-1.438,6.875-4C449.758,364.842,448.476,359.881,444.64,357.725z"/>
	<path style="fill:#5C546A;" d="M196.242,467.803c0-0.078,0-0.078,0-0.078c-4.406-0.805-8.563,2-9.445,6.32
		c-0.875,4.32,2,8.555,6.32,9.438c0.484,0.078,1.039,0.078,1.523,0.164c3.758,0,7.117-2.641,7.836-6.484
		C203.359,472.842,200.555,468.6,196.242,467.803z"/>
	<path style="fill:#5C546A;" d="M165.836,36.123c0.805,0,1.68-0.078,2.563-0.398c4.156-1.441,6.398-5.922,5.039-10.16
		c-1.438-4.16-6-6.402-10.156-4.961c-4.164,1.359-6.484,5.922-5.039,10.078C159.359,34.045,162.477,36.123,165.836,36.123z"/>
	<path style="fill:#5C546A;" d="M24.719,161.084c1.039,0.477,2.156,0.719,3.203,0.719c3.117,0,6-1.758,7.359-4.801
		c1.758-4-0.086-8.719-4.086-10.559c-4.078-1.762-8.797,0.082-10.555,4.082C18.797,154.604,20.641,159.323,24.719,161.084z"/>
	<path style="fill:#5C546A;" d="M83.758,84.526c1.922,0,3.844-0.641,5.359-2.082c3.281-2.961,3.523-8,0.563-11.281
		c-3.039-3.277-8.078-3.52-11.359-0.48c-3.281,2.961-3.523,8-0.484,11.281C79.359,83.643,81.516,84.526,83.758,84.526z"/>
	<path style="fill:#5C546A;" d="M56.477,105.803c1.523,1.281,3.359,1.84,5.125,1.84c2.32,0,4.641-0.961,6.234-2.879
		c2.805-3.359,2.32-8.398-1.117-11.281c-3.359-2.801-8.398-2.32-11.203,1.043C52.641,97.963,53.117,103.002,56.477,105.803z"/>
	<path style="fill:#5C546A;" d="M38.719,132.366c1.281,0.797,2.719,1.199,4.156,1.199c2.727,0,5.281-1.359,6.805-3.762
		c2.398-3.758,1.195-8.719-2.563-11.039c-3.68-2.32-8.641-1.199-10.961,2.559C33.758,125.084,34.961,130.045,38.719,132.366z"/>
	<path style="fill:#5C546A;" d="M166.398,459.647c-4.156-1.445-8.719,0.797-10.156,4.953c-1.445,4.164,0.719,8.727,4.953,10.242
		c0.883,0.242,1.766,0.398,2.563,0.398c3.359,0,6.398-2.078,7.602-5.359C172.797,465.647,170.641,461.162,166.398,459.647z"/>
	<path style="fill:#5C546A;" d="M136.32,48.444c1.195,0,2.398-0.238,3.602-0.879c3.914-1.922,5.516-6.801,3.516-10.723
		c-1.922-3.918-6.719-5.52-10.719-3.598v0.078c-3.922,1.922-5.523,6.723-3.523,10.723C130.555,46.842,133.438,48.444,136.32,48.444z
		"/>
	<path style="fill:#5C546A;" d="M319.758,38.682c0.961,0.32,1.922,0.48,2.883,0.48c3.195,0,6.234-1.918,7.438-5.117
		c1.602-4.16-0.477-8.801-4.563-10.32c-4.156-1.602-8.797,0.48-10.32,4.641C313.601,32.444,315.68,37.084,319.758,38.682z"/>
	<path style="fill:#5C546A;" d="M108.797,64.682c1.523,0,3.125-0.477,4.484-1.438c3.68-2.48,4.555-7.441,2.078-11.121
		c-2.484-3.598-7.438-4.559-11.117-2c-3.602,2.48-4.563,7.441-2.086,11.121C103.758,63.483,106.242,64.682,108.797,64.682z"/>
	<path style="fill:#5C546A;" d="M288.242,466.842c-4.32,0.961-7.047,5.203-6.086,9.523c0.805,3.758,4.086,6.32,7.766,6.32
		c0.555,0,1.195-0.086,1.758-0.242c4.32-0.961,7.039-5.203,6.078-9.523S292.555,465.881,288.242,466.842z"/>
	<path style="fill:#5C546A;" d="M290.242,29.725c0.633,0.16,1.195,0.16,1.836,0.16c3.602,0,6.883-2.48,7.758-6.16
		c0.961-4.32-1.68-8.641-6-9.602s-8.641,1.68-9.594,6C283.281,24.444,285.922,28.682,290.242,29.725z"/>
	<path style="fill:#708AFF;" d="M257.201,161.731c1.339,0.266,2.666,0.562,3.982,0.887
		C259.866,162.293,258.539,161.996,257.201,161.731z"/>
	<path style="fill:#708AFF;" d="M253.024,161.006c1.336,0.199,2.662,0.428,3.977,0.686
		C255.685,161.435,254.36,161.204,253.024,161.006z"/>
	<path style="fill:#708AFF;" d="M261.285,162.643c14.947,3.72,28.381,11.267,39.214,21.531c-3.488-0.42-7.031-0.662-10.632-0.662
		c-48.601,0-88,39.399-88,88c0,25.158,10.575,47.833,27.501,63.871c-28.588-3.446-52.96-20.588-66.346-44.676
		c15.017,27.038,43.858,45.338,76.979,45.338c48.601,0,88-39.399,88-88C328,206.784,299.601,172.162,261.285,162.643z"/>
	<path style="fill:#708AFF;" d="M248.76,160.478c1.346,0.134,2.683,0.299,4.011,0.493
		C251.443,160.778,250.107,160.612,248.76,160.478z"/>
	<path style="fill:#708AFF;" d="M154.352,268.323c-0.276-1.169-0.526-2.349-0.754-3.536
		C153.826,265.974,154.076,267.153,154.352,268.323z"/>
	<path style="fill:#708AFF;" d="M152.092,251.995c-0.058-1.31-0.093-2.626-0.093-3.95C152,249.369,152.035,250.685,152.092,251.995z
		"/>
	<path style="fill:#708AFF;" d="M152.368,256.07c-0.112-1.233-0.202-2.473-0.262-3.72
		C152.166,253.597,152.256,254.836,152.368,256.07z"/>
	<path style="fill:#708AFF;" d="M157.926,279.844c-0.936-2.412-1.768-4.875-2.492-7.385
		C156.158,274.969,156.991,277.432,157.926,279.844z"/>
	<path style="fill:#708AFF;" d="M152.836,260.173c-0.164-1.189-0.306-2.385-0.422-3.588
		C152.53,257.788,152.672,258.984,152.836,260.173z"/>
	<path style="fill:#708AFF;" d="M159.432,283.48c-0.508-1.154-0.994-2.319-1.454-3.498
		C158.438,281.161,158.924,282.326,159.432,283.48z"/>
	<path style="fill:#708AFF;" d="M161.122,287.092c-0.557-1.122-1.09-2.257-1.6-3.405
		C160.032,284.835,160.566,285.97,161.122,287.092z"/>
	<path style="fill:#708AFF;" d="M155.395,272.326c-0.342-1.194-0.656-2.4-0.948-3.615
		C154.739,269.926,155.053,271.132,155.395,272.326z"/>
	<path style="fill:#708AFF;" d="M240,160.045c1.424,0,2.84,0.037,4.248,0.104C242.84,160.082,241.424,160.045,240,160.045z"/>
	<path style="fill:#708AFF;" d="M244.416,160.155c1.375,0.068,2.74,0.171,4.097,0.301
		C247.155,160.326,245.79,160.223,244.416,160.155z"/>
	<path style="fill:#708AFF;" d="M162.988,290.648c-0.617-1.111-1.208-2.238-1.778-3.379
		C161.78,288.41,162.372,289.536,162.988,290.648z"/>
	<path style="fill:#708AFF;" d="M153.498,264.267c-0.218-1.169-0.412-2.346-0.583-3.53
		C153.086,261.922,153.28,263.099,153.498,264.267z"/>
	<path style="fill:#3D6EDD;" d="M229.367,335.383c-16.926-16.038-27.501-38.713-27.501-63.871c0-48.601,39.399-88,88-88
		c3.601,0,7.144,0.242,10.632,0.662c-10.833-10.264-24.267-17.811-39.214-21.531c-0.034-0.008-0.068-0.016-0.102-0.025
		c-1.316-0.326-2.643-0.622-3.982-0.887c-0.066-0.013-0.133-0.025-0.2-0.038c-1.316-0.258-2.641-0.488-3.977-0.686
		c-0.084-0.012-0.168-0.023-0.252-0.035c-1.328-0.193-2.665-0.359-4.011-0.493c-0.082-0.008-0.165-0.014-0.247-0.022
		c-1.357-0.13-2.722-0.233-4.097-0.301c-0.056-0.003-0.112-0.004-0.168-0.006c-1.408-0.067-2.823-0.104-4.248-0.104
		c-48.601,0-88,39.399-88,88c0,1.324,0.035,2.64,0.093,3.95c0.005,0.118,0.008,0.237,0.013,0.354c0.06,1.248,0.15,2.487,0.262,3.72
		c0.016,0.171,0.029,0.343,0.046,0.515c0.116,1.204,0.258,2.399,0.422,3.588c0.026,0.188,0.052,0.376,0.079,0.564
		c0.171,1.184,0.365,2.361,0.583,3.53c0.032,0.173,0.066,0.346,0.1,0.52c0.229,1.187,0.479,2.366,0.754,3.536
		c0.031,0.13,0.064,0.259,0.095,0.389c0.292,1.214,0.606,2.42,0.948,3.615c0.013,0.044,0.027,0.088,0.04,0.133
		c0.724,2.51,1.556,4.973,2.492,7.385c0.018,0.046,0.034,0.092,0.052,0.137c0.46,1.179,0.946,2.345,1.454,3.498
		c0.03,0.069,0.06,0.138,0.09,0.207c0.51,1.148,1.043,2.283,1.6,3.405c0.029,0.059,0.059,0.118,0.088,0.178
		c0.569,1.14,1.161,2.267,1.778,3.379c0.011,0.02,0.022,0.039,0.033,0.059C176.408,314.795,200.779,331.937,229.367,335.383z"/>
	<path style="fill:#FFEDB9;" d="M72.982,139.397c-0.054-0.198-0.107-0.397-0.157-0.597
		C72.875,138.999,72.928,139.198,72.982,139.397z"/>
	<path style="fill:#FFEDB9;" d="M108.132,105.249c0.294,0.089,0.584,0.187,0.874,0.285
		C108.716,105.436,108.426,105.338,108.132,105.249z"/>
	<path style="fill:#FFEDB9;" d="M106.842,104.891c0.28,0.071,0.557,0.15,0.834,0.229
		C107.399,105.04,107.122,104.961,106.842,104.891z"/>
	<path style="fill:#FFEDB9;" d="M109.393,105.665c0.307,0.109,0.61,0.226,0.911,0.346
		C110.003,105.892,109.7,105.774,109.393,105.665z"/>
	<path style="fill:#FFEDB9;" d="M102.808,104.186c0.219,0.022,0.436,0.053,0.654,0.08
		C103.244,104.239,103.027,104.207,102.808,104.186z"/>
	<path style="fill:#FFEDB9;" d="M110.623,106.137c0.316,0.13,0.629,0.268,0.939,0.409
		C111.252,106.404,110.939,106.267,110.623,106.137z"/>
	<path style="fill:#FFEDB9;" d="M101.414,104.081c0.176,0.009,0.35,0.027,0.525,0.039
		C101.764,104.107,101.591,104.09,101.414,104.081z"/>
	<path style="fill:#FFEDB9;" d="M104.178,104.357c0.245,0.037,0.486,0.083,0.728,0.126
		C104.664,104.44,104.423,104.393,104.178,104.357z"/>
	<path style="fill:#FFEDB9;" d="M105.523,104.593c0.264,0.053,0.525,0.115,0.786,0.175
		C106.048,104.707,105.787,104.645,105.523,104.593z"/>
	<path style="fill:#FFEDB9;" d="M74.855,144.367c-0.1-0.204-0.195-0.411-0.29-0.617C74.66,143.956,74.755,144.163,74.855,144.367z"
		/>
	<path style="fill:#FFEDB9;" d="M112.987,107.241c0.331,0.174,0.659,0.355,0.982,0.542
		C113.646,107.596,113.319,107.415,112.987,107.241z"/>
	<path style="fill:#FFEDB9;" d="M75.46,145.532c-0.115-0.208-0.223-0.421-0.333-0.633C75.237,145.111,75.345,145.323,75.46,145.532z
		"/>
	<path style="fill:#FFEDB9;" d="M74.302,143.169c-0.087-0.202-0.171-0.406-0.253-0.61C74.131,142.763,74.215,142.967,74.302,143.169
		z"/>
	<path style="fill:#FFEDB9;" d="M76.118,146.665c-0.136-0.222-0.264-0.448-0.394-0.674
		C75.854,146.217,75.982,146.443,76.118,146.665z"/>
	<path style="fill:#FFEDB9;" d="M78.989,150.543c-0.234-0.265-0.465-0.532-0.688-0.806
		C78.524,150.011,78.755,150.278,78.989,150.543z"/>
	<path style="fill:#FFEDB9;" d="M78.293,149.727c-0.72-0.883-1.384-1.813-1.994-2.78C76.908,147.914,77.573,148.844,78.293,149.727z
		"/>
	<path style="fill:#FFEDB9;" d="M111.823,106.663c0.325,0.152,0.645,0.311,0.963,0.474
		C112.468,106.974,112.147,106.815,111.823,106.663z"/>
	<path style="fill:#FFEDB9;" d="M72.66,138.081c-0.043-0.196-0.087-0.393-0.126-0.59C72.573,137.689,72.616,137.885,72.66,138.081z"
		/>
	<path style="fill:#FFEDB9;" d="M73.364,140.683c-0.065-0.2-0.127-0.4-0.188-0.602C73.237,140.283,73.3,140.483,73.364,140.683z"/>
	<path style="fill:#FFEDB9;" d="M72.399,136.736c-0.032-0.192-0.067-0.383-0.095-0.576
		C72.332,136.353,72.366,136.544,72.399,136.736z"/>
	<path style="fill:#FFEDB9;" d="M73.805,141.941c-0.076-0.201-0.149-0.403-0.22-0.606C73.656,141.538,73.729,141.741,73.805,141.941
		z"/>
	<path style="fill:#FFEDB9;" d="M72.067,133.893c-0.01-0.153-0.025-0.304-0.032-0.458C72.043,133.589,72.057,133.741,72.067,133.893
		z"/>
	<path style="fill:#FFEDB9;" d="M72.201,135.354c-0.021-0.183-0.046-0.364-0.064-0.547C72.155,134.99,72.18,135.172,72.201,135.354z
		"/>
	<path style="fill:#FFEDB9;" d="M116.209,109.221c-0.326-0.232-0.656-0.457-0.991-0.675
		C115.553,108.765,115.884,108.99,116.209,109.221z"/>
	<path style="fill:#FFEDB9;" d="M82.823,154.15c0.276,0.214,0.555,0.424,0.838,0.628C83.378,154.574,83.099,154.364,82.823,154.15z"
		/>
	<path style="fill:#FFEDB9;" d="M84.829,155.574c0.327,0.211,0.657,0.417,0.993,0.614C85.487,155.991,85.156,155.785,84.829,155.574
		z"/>
	<path style="fill:#FFEDB9;" d="M115.109,108.477c-0.063-0.041-0.127-0.082-0.19-0.122c-0.264-0.167-0.53-0.329-0.8-0.487
		C114.453,108.065,114.784,108.268,115.109,108.477z"/>
	<path style="fill:#FFEDB9;" d="M119.25,111.722c-1.11-0.134-2.237-0.211-3.383-0.211c-15.464,0-28,12.536-28,28
		c0,8.005,3.365,15.22,8.75,20.323c-3.897-0.47-7.548-1.74-10.783-3.64c0.35,0.206,0.704,0.406,1.064,0.596
		c3.91,2.075,8.368,3.254,13.102,3.254c15.464,0,28-12.536,28-28c0-6.778-2.409-12.993-6.417-17.837
		C120.858,113.331,120.075,112.504,119.25,111.722z"/>
	<path style="fill:#FFEDB9;" d="M81.851,153.358c0.258,0.22,0.521,0.435,0.787,0.646C82.372,153.793,82.109,153.578,81.851,153.358z
		"/>
	<path style="fill:#FFEDB9;" d="M117.268,110.013c-0.324-0.254-0.653-0.501-0.988-0.741
		C116.615,109.512,116.945,109.759,117.268,110.013z"/>
	<path style="fill:#FFEDB9;" d="M80.91,152.52c0.244,0.227,0.492,0.448,0.743,0.667C81.402,152.969,81.153,152.747,80.91,152.52z"/>
	<path style="fill:#FFEDB9;" d="M119.25,111.722c-0.311-0.295-0.629-0.582-0.953-0.863
		C118.621,111.14,118.938,111.428,119.25,111.722z"/>
	<path style="fill:#FFEDB9;" d="M83.821,154.89c0.297,0.211,0.599,0.417,0.904,0.616C84.419,155.307,84.118,155.101,83.821,154.89z"
		/>
	<path style="fill:#FFEDB9;" d="M118.281,110.846c-0.319-0.275-0.644-0.543-0.975-0.804
		C117.637,110.303,117.962,110.571,118.281,110.846z"/>
	<path style="fill:#FFEDB9;" d="M80.71,152.329c-0.24-0.228-0.477-0.458-0.708-0.694C80.233,151.871,80.47,152.101,80.71,152.329z"
		/>
	<path style="fill:#FFEDB9;" d="M79.131,150.707c0.224,0.25,0.454,0.493,0.687,0.735C79.585,151.2,79.355,150.957,79.131,150.707z"
		/>
	<path style="fill:#FFD586;" d="M74.302,143.169c0.085,0.195,0.174,0.388,0.263,0.581c0.095,0.207,0.19,0.413,0.29,0.617
		c0.088,0.179,0.181,0.355,0.273,0.532c0.11,0.212,0.218,0.424,0.333,0.633c0.085,0.155,0.176,0.306,0.264,0.459
		c0.13,0.226,0.258,0.453,0.394,0.674c0.058,0.095,0.121,0.187,0.18,0.281c0.61,0.967,1.273,1.898,1.994,2.78
		c0.003,0.003,0.005,0.007,0.008,0.01c0.224,0.274,0.455,0.541,0.688,0.806c0.039,0.045,0.076,0.092,0.116,0.136
		c0.009,0.01,0.018,0.019,0.026,0.028c0.224,0.25,0.454,0.494,0.687,0.735c0.062,0.064,0.122,0.13,0.184,0.193
		c0.231,0.236,0.469,0.466,0.708,0.694c0.067,0.064,0.133,0.128,0.2,0.191c0.243,0.227,0.492,0.448,0.743,0.667
		c0.066,0.057,0.131,0.115,0.198,0.171c0.258,0.22,0.521,0.435,0.787,0.646c0.062,0.049,0.124,0.098,0.186,0.146
		c0.276,0.214,0.555,0.424,0.838,0.628c0.053,0.038,0.106,0.075,0.159,0.113c0.297,0.211,0.599,0.417,0.904,0.616
		c0.035,0.023,0.07,0.044,0.104,0.067c0.327,0.211,0.657,0.417,0.993,0.614c0.004,0.002,0.007,0.004,0.011,0.006
		c3.235,1.901,6.886,3.17,10.783,3.64c-5.386-5.103-8.75-12.318-8.75-20.323c0-15.464,12.536-28,28-28
		c1.146,0,2.273,0.077,3.383,0.211l0,0c0,0,0,0,0,0c-0.311-0.295-0.629-0.583-0.953-0.863c-0.005-0.004-0.01-0.009-0.015-0.013
		c-0.319-0.275-0.644-0.543-0.975-0.804c-0.013-0.01-0.025-0.02-0.038-0.03c-0.323-0.254-0.653-0.501-0.988-0.741
		c-0.024-0.017-0.047-0.034-0.071-0.051c-0.325-0.232-0.656-0.457-0.991-0.675c-0.036-0.023-0.072-0.046-0.108-0.069
		c-0.326-0.209-0.656-0.413-0.99-0.609c-0.05-0.029-0.1-0.057-0.15-0.086c-0.323-0.187-0.65-0.368-0.982-0.542
		c-0.067-0.035-0.135-0.069-0.202-0.103c-0.318-0.164-0.638-0.323-0.963-0.474c-0.086-0.04-0.174-0.078-0.26-0.118
		c-0.311-0.141-0.623-0.279-0.939-0.409c-0.105-0.043-0.212-0.083-0.318-0.125c-0.302-0.12-0.604-0.237-0.911-0.346
		c-0.128-0.046-0.258-0.087-0.387-0.131c-0.29-0.099-0.58-0.196-0.874-0.285c-0.151-0.046-0.304-0.086-0.456-0.13
		c-0.277-0.079-0.554-0.158-0.834-0.229c-0.176-0.044-0.355-0.082-0.533-0.123c-0.261-0.06-0.522-0.122-0.786-0.175
		c-0.204-0.041-0.411-0.074-0.617-0.11c-0.242-0.043-0.484-0.089-0.728-0.126c-0.237-0.035-0.477-0.061-0.716-0.091
		c-0.218-0.027-0.435-0.059-0.654-0.08c-0.288-0.029-0.578-0.046-0.868-0.066c-0.175-0.012-0.349-0.03-0.525-0.039
		c-0.469-0.023-0.94-0.036-1.414-0.036c-15.464,0-28,12.536-28,28c0,0.466,0.013,0.929,0.035,1.39
		c0.008,0.154,0.022,0.305,0.032,0.458c0.02,0.305,0.04,0.611,0.069,0.914c0.018,0.183,0.043,0.365,0.064,0.547
		c0.032,0.269,0.063,0.538,0.102,0.805c0.028,0.193,0.063,0.385,0.095,0.576c0.043,0.253,0.086,0.505,0.135,0.755
		c0.039,0.198,0.083,0.394,0.126,0.59c0.053,0.24,0.107,0.48,0.166,0.718c0.05,0.2,0.103,0.399,0.157,0.597
		c0.062,0.229,0.126,0.458,0.194,0.685c0.06,0.201,0.123,0.402,0.188,0.602c0.071,0.219,0.145,0.436,0.221,0.653
		c0.072,0.203,0.144,0.405,0.22,0.606c0.078,0.208,0.16,0.413,0.244,0.618C74.131,142.763,74.215,142.967,74.302,143.169z"/>
	<path style="fill:#FF7400;" d="M450.469,258.651c-0.285-0.576-0.544-1.167-0.782-1.769
		C449.925,257.484,450.185,258.075,450.469,258.651z"/>
	<path style="fill:#FF7400;" d="M483.131,226.784c0.284,0.149,0.565,0.305,0.842,0.465
		C483.696,227.089,483.416,226.933,483.131,226.784z"/>
	<path style="fill:#FF7400;" d="M481.105,225.838c0.272,0.112,0.541,0.23,0.808,0.352
		C481.646,226.068,481.377,225.95,481.105,225.838z"/>
	<path style="fill:#FF7400;" d="M482.132,226.288c0.279,0.13,0.555,0.267,0.828,0.408
		C482.687,226.555,482.411,226.419,482.132,226.288z"/>
	<path style="fill:#FF7400;" d="M486.833,229.185c0.285,0.224,0.564,0.455,0.838,0.691
		C487.397,229.64,487.117,229.409,486.833,229.185z"/>
	<path style="fill:#FF7400;" d="M485.953,228.524c0.287,0.206,0.57,0.418,0.848,0.636
		C486.524,228.942,486.241,228.73,485.953,228.524z"/>
	<path style="fill:#FF7400;" d="M485.043,227.903c0.288,0.187,0.572,0.38,0.852,0.579
		C485.615,228.284,485.331,228.09,485.043,227.903z"/>
	<path style="fill:#FF7400;" d="M484.102,227.322c0.287,0.168,0.57,0.343,0.85,0.522
		C484.672,227.665,484.389,227.491,484.102,227.322z"/>
	<path style="fill:#FF7400;" d="M448.892,254.523c-0.173-0.619-0.324-1.247-0.448-1.884
		C448.568,253.277,448.719,253.905,448.892,254.523z"/>
	<path style="fill:#FF7400;" d="M449.585,256.625c-0.227-0.593-0.431-1.198-0.612-1.813
		C449.154,255.427,449.358,256.031,449.585,256.625z"/>
	<path style="fill:#FF7400;" d="M496,248.045c0-7.259-3.227-13.76-8.319-18.161c0.279,0.241,0.552,0.488,0.819,0.741
		c-0.951-0.115-1.918-0.181-2.9-0.181c-13.255,0-24,10.745-24,24c0,6.861,2.884,13.045,7.5,17.419
		c-3.705-0.447-7.149-1.738-10.137-3.673c1.395,0.904,2.888,1.668,4.462,2.271c2.664,1.02,5.552,1.583,8.574,1.583
		c2.067,0,4.072-0.262,5.986-0.753C488.344,268.633,496,259.233,496,248.045z"/>
	<path style="fill:#FF7400;" d="M448.1,250.187c-0.063-0.706-0.1-1.42-0.1-2.142C448,248.768,448.038,249.481,448.1,250.187z"/>
	<path style="fill:#FF7400;" d="M478.97,225.077c0.253,0.077,0.502,0.16,0.751,0.245
		C479.472,225.237,479.223,225.153,478.97,225.077z"/>
	<path style="fill:#FF7400;" d="M448.395,252.366c-0.119-0.654-0.216-1.316-0.281-1.988
		C448.179,251.05,448.276,251.712,448.395,252.366z"/>
	<path style="fill:#FF7400;" d="M480.051,225.433c0.263,0.094,0.523,0.195,0.783,0.297
		C480.574,225.628,480.314,225.527,480.051,225.433z"/>
	<path style="fill:#FF7400;" d="M457.161,266.901c-0.534-0.421-1.051-0.864-1.547-1.328
		C456.11,266.037,456.627,266.479,457.161,266.901z"/>
	<path style="fill:#FF7400;" d="M455.538,265.501c-0.498-0.469-0.977-0.958-1.433-1.468
		C454.561,264.543,455.041,265.032,455.538,265.501z"/>
	<path style="fill:#FF7400;" d="M458.922,268.165c-0.579-0.376-1.139-0.778-1.682-1.202
		C457.783,267.387,458.343,267.788,458.922,268.165z"/>
	<path style="fill:#FF7400;" d="M454.069,263.991c-0.929-1.043-1.768-2.168-2.505-3.362
		C452.301,261.823,453.14,262.947,454.069,263.991z"/>
	<path style="fill:#FF7400;" d="M451.534,260.584c-0.349-0.569-0.672-1.155-0.973-1.754
		C450.863,259.429,451.185,260.015,451.534,260.584z"/>
	<path style="fill:#FF7400;" d="M477.411,224.665c-0.225-0.052-0.45-0.105-0.677-0.151
		C476.961,224.56,477.186,224.613,477.411,224.665z"/>
	<path style="fill:#FF7400;" d="M478.58,224.966c-0.238-0.068-0.476-0.136-0.717-0.196
		C478.104,224.83,478.342,224.898,478.58,224.966z"/>
	<path style="fill:#FF7400;" d="M476.205,224.42c-0.207-0.037-0.414-0.076-0.623-0.108
		C475.791,224.344,475.997,224.383,476.205,224.42z"/>
	<path style="fill:#FF7400;" d="M473.655,224.108c-0.148-0.01-0.294-0.025-0.442-0.033
		C473.361,224.083,473.508,224.098,473.655,224.108z"/>
	<path style="fill:#FF7400;" d="M474.965,224.234c-0.186-0.023-0.371-0.05-0.559-0.069
		C474.594,224.184,474.779,224.211,474.965,224.234z"/>
	<path style="fill:#D55A00;" d="M469.1,271.865c-4.616-4.374-7.5-10.558-7.5-17.419c0-13.255,10.745-24,24-24
		c0.982,0,1.948,0.066,2.9,0.181c-0.267-0.253-0.54-0.5-0.819-0.741c-0.003-0.003-0.006-0.005-0.009-0.008
		c-0.274-0.237-0.554-0.467-0.838-0.691c-0.01-0.008-0.021-0.016-0.031-0.025c-0.278-0.218-0.561-0.43-0.848-0.636
		c-0.02-0.014-0.039-0.028-0.059-0.042c-0.28-0.199-0.563-0.392-0.852-0.579c-0.03-0.02-0.061-0.039-0.092-0.059
		c-0.279-0.18-0.563-0.354-0.85-0.522c-0.042-0.025-0.085-0.049-0.128-0.073c-0.277-0.16-0.558-0.316-0.842-0.465
		c-0.057-0.03-0.114-0.058-0.171-0.088c-0.273-0.141-0.549-0.277-0.828-0.408c-0.072-0.034-0.146-0.066-0.219-0.099
		c-0.267-0.122-0.536-0.24-0.808-0.352c-0.09-0.037-0.181-0.071-0.272-0.107c-0.259-0.103-0.519-0.203-0.783-0.297
		c-0.109-0.039-0.22-0.074-0.329-0.111c-0.249-0.085-0.498-0.168-0.751-0.245c-0.086-0.026-0.174-0.05-0.261-0.075
		c-0.043-0.012-0.087-0.023-0.13-0.036c-0.238-0.068-0.476-0.136-0.717-0.196c-0.15-0.038-0.302-0.07-0.453-0.104
		c-0.225-0.052-0.45-0.105-0.677-0.151c-0.175-0.035-0.353-0.063-0.529-0.094c-0.207-0.037-0.414-0.076-0.623-0.108
		c-0.204-0.031-0.411-0.053-0.617-0.078c-0.186-0.023-0.371-0.05-0.559-0.069c-0.249-0.025-0.5-0.04-0.751-0.057
		c-0.148-0.01-0.294-0.025-0.442-0.033c-0.402-0.02-0.806-0.031-1.213-0.031c-3.198,0-6.248,0.631-9.039,1.766
		C454.187,229.382,448,237.989,448,248.045c0,0.723,0.038,1.436,0.1,2.142c0.006,0.063,0.008,0.128,0.015,0.191
		c0.065,0.672,0.162,1.333,0.281,1.988c0.017,0.091,0.031,0.182,0.049,0.273c0.124,0.638,0.275,1.266,0.448,1.884
		c0.027,0.096,0.054,0.192,0.082,0.288c0.181,0.615,0.384,1.22,0.612,1.813c0.033,0.086,0.068,0.172,0.102,0.258
		c0.239,0.601,0.498,1.192,0.782,1.769c0.03,0.06,0.061,0.119,0.091,0.179c0.302,0.599,0.624,1.185,0.973,1.754
		c0.009,0.015,0.02,0.03,0.029,0.045c0.737,1.194,1.576,2.319,2.505,3.362c0.012,0.014,0.024,0.028,0.037,0.042
		c0.456,0.51,0.935,0.999,1.433,1.468c0.025,0.024,0.05,0.048,0.076,0.072c0.496,0.464,1.013,0.907,1.547,1.328
		c0.026,0.021,0.053,0.042,0.079,0.062c0.543,0.424,1.103,0.825,1.682,1.202c0.014,0.009,0.028,0.018,0.041,0.027
		C461.951,270.127,465.395,271.418,469.1,271.865z"/>
	<path style="fill:#FFD042;" d="M246.971,361.077c0.253,0.077,0.502,0.16,0.751,0.245
		C247.473,361.237,247.223,361.153,246.971,361.077z"/>
	<path style="fill:#FFD042;" d="M237.1,407.864c-3.704-0.447-7.148-1.737-10.135-3.672
		C229.952,406.129,233.395,407.418,237.1,407.864z"/>
	<path style="fill:#FFD042;" d="M226.921,404.164c-0.578-0.376-1.138-0.778-1.68-1.201
		C225.783,403.387,226.343,403.788,226.921,404.164z"/>
	<path style="fill:#FFD042;" d="M244.734,360.514c0.227,0.046,0.451,0.099,0.675,0.15
		C245.185,360.613,244.961,360.56,244.734,360.514z"/>
	<path style="fill:#FFD042;" d="M245.864,360.77c0.24,0.061,0.478,0.128,0.715,0.196C246.342,360.898,246.104,360.83,245.864,360.77
		z"/>
	<path style="fill:#FFD042;" d="M243.582,360.312c0.209,0.031,0.415,0.071,0.622,0.107
		C243.997,360.383,243.791,360.344,243.582,360.312z"/>
	<path style="fill:#FFD042;" d="M242.406,360.165c0.188,0.019,0.372,0.046,0.559,0.069
		C242.779,360.211,242.594,360.184,242.406,360.165z"/>
	<path style="fill:#FFD042;" d="M217.586,392.625c-0.227-0.593-0.431-1.198-0.612-1.813
		C217.154,391.427,217.358,392.031,217.586,392.625z"/>
	<path style="fill:#FFD042;" d="M216.395,388.366c-0.119-0.654-0.216-1.316-0.281-1.988
		C216.18,387.05,216.276,387.712,216.395,388.366z"/>
	<path style="fill:#FFD042;" d="M218.47,394.651c-0.285-0.576-0.544-1.167-0.782-1.769
		C217.926,393.484,218.185,394.075,218.47,394.651z"/>
	<path style="fill:#FFD042;" d="M225.16,402.9c-0.534-0.421-1.05-0.863-1.546-1.326C224.11,402.037,224.626,402.479,225.16,402.9z"
		/>
	<path style="fill:#FFD042;" d="M216.892,390.523c-0.173-0.619-0.324-1.247-0.448-1.884
		C216.568,389.277,216.719,389.905,216.892,390.523z"/>
	<path style="fill:#FFD042;" d="M216.1,386.187c-0.063-0.706-0.1-1.42-0.1-2.142C216,384.768,216.038,385.481,216.1,386.187z"/>
	<path style="fill:#FFD042;" d="M222.069,399.991c-0.929-1.043-1.767-2.167-2.504-3.361
		C220.301,397.824,221.141,398.947,222.069,399.991z"/>
	<path style="fill:#FFD042;" d="M223.537,401.5c-0.497-0.469-0.976-0.958-1.432-1.467C222.561,400.543,223.04,401.031,223.537,401.5
		z"/>
	<path style="fill:#FFD042;" d="M219.534,396.583c-0.349-0.568-0.671-1.155-0.973-1.753
		C218.863,395.428,219.185,396.014,219.534,396.583z"/>
	<path style="fill:#FFD042;" d="M241.213,360.076c0.148,0.007,0.295,0.022,0.442,0.032
		C241.508,360.098,241.361,360.083,241.213,360.076z"/>
	<path style="fill:#FFD042;" d="M249.105,361.838c0.272,0.112,0.541,0.23,0.808,0.352
		C249.646,362.068,249.378,361.95,249.105,361.838z"/>
	<path style="fill:#FFD042;" d="M250.132,362.288c0.279,0.13,0.555,0.267,0.827,0.407
		C250.686,362.555,250.411,362.419,250.132,362.288z"/>
	<path style="fill:#FFD042;" d="M264,384.045c0-0.294-0.012-0.585-0.022-0.876c-0.004-0.113-0.003-0.227-0.009-0.339
		c-0.338-6.767-3.482-12.791-8.289-16.945c0.279,0.241,0.552,0.488,0.819,0.741c-0.951-0.115-1.918-0.181-2.9-0.181
		c-13.255,0-24,10.745-24,24c0,6.861,2.884,13.045,7.5,17.419c0.951,0.115,1.918,0.181,2.9,0.181
		C253.255,408.045,264,397.3,264,384.045z"/>
	<path style="fill:#FFD042;" d="M248.051,361.433c0.263,0.094,0.523,0.195,0.782,0.297
		C248.574,361.628,248.314,361.527,248.051,361.433z"/>
	<path style="fill:#FFD042;" d="M254.833,365.185c0.285,0.224,0.564,0.455,0.838,0.691
		C255.397,365.64,255.118,365.409,254.833,365.185z"/>
	<path style="fill:#FFD042;" d="M253.953,364.524c0.287,0.206,0.57,0.418,0.848,0.636
		C254.524,364.942,254.241,364.73,253.953,364.524z"/>
	<path style="fill:#FFD042;" d="M251.132,362.784c0.284,0.149,0.564,0.304,0.841,0.464
		C251.696,363.088,251.416,362.933,251.132,362.784z"/>
	<path style="fill:#FFD042;" d="M252.102,363.323c0.287,0.168,0.57,0.342,0.849,0.522
		C252.672,363.665,252.389,363.491,252.102,363.323z"/>
	<path style="fill:#FFD042;" d="M253.043,363.903c0.288,0.187,0.572,0.38,0.852,0.579
		C253.615,364.284,253.331,364.09,253.043,363.903z"/>
	<path style="fill:#DBB246;" d="M229.6,390.445c0-13.255,10.745-24,24-24c0.982,0,1.948,0.066,2.9,0.181
		c-0.267-0.253-0.54-0.5-0.819-0.741c-0.003-0.003-0.006-0.005-0.009-0.008c-0.274-0.237-0.554-0.467-0.838-0.691
		c-0.01-0.008-0.021-0.016-0.031-0.025c-0.278-0.218-0.561-0.43-0.848-0.636c-0.02-0.014-0.039-0.028-0.059-0.042
		c-0.28-0.199-0.563-0.392-0.852-0.579c-0.03-0.02-0.061-0.039-0.092-0.059c-0.279-0.18-0.562-0.354-0.849-0.522
		c-0.043-0.025-0.086-0.049-0.129-0.074c-0.277-0.16-0.557-0.315-0.841-0.464c-0.057-0.03-0.115-0.059-0.173-0.088
		c-0.273-0.141-0.548-0.277-0.827-0.407c-0.072-0.034-0.146-0.066-0.219-0.099c-0.267-0.122-0.536-0.24-0.808-0.352
		c-0.09-0.037-0.182-0.071-0.272-0.107c-0.259-0.103-0.519-0.203-0.782-0.297c-0.109-0.039-0.219-0.074-0.329-0.111
		c-0.249-0.085-0.499-0.168-0.751-0.245c-0.129-0.039-0.261-0.074-0.391-0.111c-0.237-0.068-0.475-0.135-0.715-0.196
		c-0.15-0.038-0.303-0.07-0.455-0.105c-0.224-0.052-0.448-0.105-0.675-0.15c-0.175-0.035-0.353-0.063-0.53-0.095
		c-0.207-0.037-0.413-0.076-0.622-0.107c-0.204-0.031-0.411-0.053-0.617-0.078c-0.186-0.023-0.371-0.05-0.559-0.069
		c-0.249-0.025-0.5-0.04-0.751-0.057c-0.148-0.01-0.294-0.025-0.442-0.032c-0.402-0.02-0.806-0.031-1.213-0.031
		c-13.255,0-24,10.745-24,24c0,0.723,0.038,1.436,0.1,2.142c0.006,0.064,0.008,0.128,0.015,0.191
		c0.065,0.672,0.162,1.333,0.281,1.988c0.017,0.091,0.031,0.182,0.049,0.273c0.124,0.638,0.275,1.266,0.448,1.884
		c0.027,0.096,0.054,0.192,0.082,0.288c0.181,0.615,0.384,1.22,0.612,1.813c0.033,0.086,0.068,0.172,0.102,0.258
		c0.239,0.601,0.498,1.192,0.782,1.769c0.03,0.06,0.061,0.119,0.091,0.179c0.302,0.598,0.624,1.185,0.973,1.753
		c0.01,0.016,0.02,0.031,0.03,0.047c0.737,1.194,1.576,2.318,2.504,3.361c0.013,0.014,0.024,0.028,0.037,0.042
		c0.456,0.51,0.935,0.998,1.432,1.467c0.026,0.024,0.051,0.049,0.077,0.073c0.496,0.464,1.012,0.906,1.546,1.326
		c0.027,0.021,0.054,0.042,0.081,0.063c0.542,0.423,1.102,0.825,1.68,1.201c0.014,0.009,0.029,0.018,0.043,0.028
		c2.987,1.935,6.431,3.226,10.135,3.672c0,0,0,0,0,0h0C232.484,403.49,229.6,397.306,229.6,390.445z"/>
</g>
</svg>